<?xml version="1.0" encoding="UTF-8" standalone="no"?>
<svg
   xmlns:dc="http://purl.org/dc/elements/1.1/"
   xmlns:cc="http://creativecommons.org/ns#"
   xmlns:rdf="http://www.w3.org/1999/02/22-rdf-syntax-ns#"
   xmlns:svg="http://www.w3.org/2000/svg"
   xmlns="http://www.w3.org/2000/svg"
   xmlns:sodipodi="http://sodipodi.sourceforge.net/DTD/sodipodi-0.dtd"
   xmlns:inkscape="http://www.inkscape.org/namespaces/inkscape"
   inkscape:version="1.0 (4035a4f, 2020-05-01)"
   sodipodi:docname="gitea.svg"
   id="svg853"
   version="1.1"
   height="27.928991"
   width="29.569658"
   viewBox="0 0 125.17853 118.23302">
  <metadata
     id="metadata859">
    <rdf:RDF>
      <cc:Work
         rdf:about="">
        <dc:format>image/svg+xml</dc:format>
        <dc:type
           rdf:resource="http://purl.org/dc/dcmitype/StillImage" />
      </cc:Work>
    </rdf:RDF>
  </metadata>
  <defs
     id="defs857" />
  <sodipodi:namedview
     inkscape:current-layer="svg853"
     inkscape:window-maximized="1"
     inkscape:window-y="1103"
     inkscape:window-x="354"
     inkscape:cy="14.658378"
     inkscape:cx="16.797791"
     inkscape:zoom="17.78125"
     showgrid="false"
     id="namedview855"
     inkscape:window-height="755"
     inkscape:window-width="1241"
     inkscape:pageshadow="2"
     inkscape:pageopacity="0"
     guidetolerance="10"
     gridtolerance="10"
     objecttolerance="10"
     borderopacity="1"
     bordercolor="#666666"
     pagecolor="#ffffff" />
  <path
     id="path833"
     stroke="#428f29"
     fill="#609926"
     d="m 22.159966,0.50008625 c -9.547,-0.028 -22.34000042,6.79799995 -21.63200042,23.90399975 1.10600002,26.728 25.45700042,29.208 35.19200042,29.423 1.068,5.013 12.522,22.305 21.002,23.216 h 37.152 c 22.278004,-1.668 38.961004,-75.7559998 26.594004,-76.0379998 -46.782004,2.477 -49.996004,2.138 -88.600004,0 -2.495,-0.0269999 -5.972,-0.49499995 -9.708,-0.50499995 z m 2.491,9.45799995 c 1.352,13.6939998 3.556,21.7039998 8.019,33.9439998 -11.382,-1.505 -21.07,-5.225 -22.8510004,-19.11 -0.951,-7.411 2.3900004,-15.1679998 14.8330004,-14.8339998 z" />
  <g
     transform="translate(-5.5500306,-33.117914)"
     id="g839"
     fill="#ffffff">
    <rect
       id="rect835"
       ry="5.4829998"
       transform="rotate(25.915)"
       y="18.292"
       x="87.509003"
       height="34.762001"
       width="34.762001" />
    <path
       id="path837"
       d="m 79.805,57.36 3.241,1.609 V 35.256 h -3.263 z" />
  </g>
  <g
     transform="translate(-5.5500306,-33.117914)"
     id="g851"
     class="detail-remove">
    <circle
       id="circle841"
       fill="#609926"
       cx="49.064999"
       cy="90.078003"
       r="3.4749999"
       transform="rotate(-19.796)" />
    <circle
       id="circle843"
       fill="#609926"
       cx="36.810001"
       cy="102.105"
       r="3.4749999"
       transform="rotate(-19.796)" />
    <circle
       id="circle845"
       fill="#609926"
       cx="46.484001"
       cy="111.439"
       r="3.4749999"
       transform="rotate(-19.796)" />
    <path
       id="path847"
       d="M 79.54,58.936 81.942,60.108 69.98,84.605 67.578,83.433 Z"
       fill="#609926" />
    <path
       id="path849"
       stroke-width="2.68"
       stroke="#609926"
       fill="none"
       d="m 76.558,68.116 c 12.976,6.396 13.013,4.102 4.891,20.908" />
  </g>
  <text
     id="text863"
     y="117.96209"
     x="22.343456"
     style="font-style:normal;font-weight:normal;font-size:33.8667px;line-height:1.25;font-family:sans-serif;fill:#000000;fill-opacity:1;stroke:none;stroke-width:4.23334"
     xml:space="preserve"><tspan
       style="font-style:normal;font-variant:normal;font-weight:normal;font-stretch:normal;font-size:33.8667px;font-family:Lato;-inkscape-font-specification:Lato;stroke-width:4.23334"
       y="117.96209"
       x="22.343456"
       id="tspan861"
       sodipodi:role="line">Gitea</tspan></text>
</svg>
