<svg xmlns="http://www.w3.org/2000/svg" xmlns:svg="http://www.w3.org/2000/svg" id="svg853" width="29.57" height="27.929" version="1.1" viewBox="0 0 125.179 118.233"><metadata id="metadata859"/><path id="path833" fill="#609926" stroke="#428f29" d="m 22.159966,0.50008625 c -9.547,-0.028 -22.34000042,6.79799995 -21.63200042,23.90399975 1.10600002,26.728 25.45700042,29.208 35.19200042,29.423 1.068,5.013 12.522,22.305 21.002,23.216 h 37.152 c 22.278004,-1.668 38.961004,-75.7559998 26.594004,-76.0379998 -46.782004,2.477 -49.996004,2.138 -88.600004,0 -2.495,-0.0269999 -5.972,-0.49499995 -9.708,-0.50499995 z m 2.491,9.45799995 c 1.352,13.6939998 3.556,21.7039998 8.019,33.9439998 -11.382,-1.505 -21.07,-5.225 -22.8510004,-19.11 -0.951,-7.411 2.3900004,-15.1679998 14.8330004,-14.8339998 z"/><g id="g839" fill="#fff" transform="translate(-5.5500306,-33.117914)"><rect id="rect835" width="34.762" height="34.762" x="87.509" y="18.292" ry="5.483" transform="rotate(25.915)"/><path id="path837" d="m 79.805,57.36 3.241,1.609 V 35.256 h -3.263 z"/></g><g id="g851" class="detail-remove" transform="translate(-5.5500306,-33.117914)"><circle id="circle841" cx="49.065" cy="90.078" r="3.475" fill="#609926" transform="rotate(-19.796)"/><circle id="circle843" cx="36.81" cy="102.105" r="3.475" fill="#609926" transform="rotate(-19.796)"/><circle id="circle845" cx="46.484" cy="111.439" r="3.475" fill="#609926" transform="rotate(-19.796)"/><path id="path847" fill="#609926" d="M 79.54,58.936 81.942,60.108 69.98,84.605 67.578,83.433 Z"/><path id="path849" fill="none" stroke="#609926" stroke-width="2.68" d="m 76.558,68.116 c 12.976,6.396 13.013,4.102 4.891,20.908"/></g><text id="text863" x="22.343" y="117.962" xml:space="preserve" style="font-style:normal;font-weight:400;font-size:33.8667px;line-height:1.25;font-family:sans-serif;fill:#000;fill-opacity:1;stroke:none;stroke-width:4.23334"><tspan style="font-style:normal;font-variant:normal;font-weight:400;font-stretch:normal;font-size:33.8667px;font-family:Lato;-inkscape-font-specification:Lato;stroke-width:4.23334" id="tspan861" x="22.343" y="117.962">Gitea</tspan></text></svg>