<svg xmlns="http://www.w3.org/2000/svg" xmlns:svg="http://www.w3.org/2000/svg" id="svg833" width="480.245" height="530.449" version="1.1" viewBox="0 0 480.245 530.449" xml:space="preserve"><metadata id="metadata839"/><defs id="defs837"><clipPath id="clipPath851" clipPathUnits="userSpaceOnUse"><path id="path849" d="M 0,576 H 576 V 0 H 0 Z"/></clipPath></defs><g id="g841" transform="matrix(1.3333333,0,0,-1.3333333,-143.8776,1035.5115)"><g id="g845" transform="translate(0,-4.5)"><g id="g847" clip-path="url(#clipPath851)"><g id="g881" transform="translate(177.2812,439.0122)"><path id="path883" d="m 0,0 h -30.267 c -0.781,0 -1.415,-0.634 -1.415,-1.415 v -14.798 c 0,-0.781 0.634,-1.416 1.415,-1.416 h 11.807 v -18.386 c 0,0 -2.651,-0.903 -9.981,-0.903 -8.647,0 -20.727,3.159 -20.727,29.723 0,26.569 12.579,30.065 24.388,30.065 10.222,0 14.626,-1.8 17.428,-2.667 0.881,-0.269 1.695,0.607 1.695,1.388 l 3.377,14.298 c 0,0.366 -0.124,0.806 -0.54,1.105 -1.138,0.812 -8.081,4.697 -25.621,4.697 -20.205,0 -40.932,-8.597 -40.932,-49.922 0,-41.326 23.73,-47.484 43.727,-47.484 16.557,0 26.601,7.075 26.601,7.075 0.414,0.228 0.459,0.807 0.459,1.072 V -1.415 C 1.414,-0.634 0.781,0 0,0" style="fill:#0f0e0f;fill-opacity:1;fill-rule:nonzero;stroke:none"/></g><g id="g885" transform="translate(333.2646,475.7515)"><path id="path887" d="m 0,0 c 0,0.787 -0.624,1.423 -1.405,1.423 h -17.042 c -0.779,0 -1.411,-0.636 -1.411,-1.423 0,-0.004 0.004,-32.935 0.004,-32.935 H -46.418 V 0 c 0,0.787 -0.627,1.423 -1.407,1.423 h -17.041 c -0.775,0 -1.407,-0.636 -1.407,-1.423 v -89.178 c 0,-0.786 0.632,-1.426 1.407,-1.426 h 17.041 c 0.78,0 1.407,0.64 1.407,1.426 v 38.145 h 26.564 c 0,0 -0.046,-38.142 -0.046,-38.145 0,-0.786 0.631,-1.426 1.412,-1.426 h 17.082 c 0.78,0 1.404,0.64 1.406,1.426 z" style="fill:#0f0e0f;fill-opacity:1;fill-rule:nonzero;stroke:none"/></g><g id="g889" transform="translate(209.4404,464.0493)"><path id="path891" d="m 0,0 c 0,6.136 -4.92,11.095 -10.99,11.095 -6.064,0 -10.987,-4.959 -10.987,-11.095 0,-6.13 4.923,-11.103 10.987,-11.103 C -4.92,-11.103 0,-6.13 0,0" style="fill:#0f0e0f;fill-opacity:1;fill-rule:nonzero;stroke:none"/></g><g id="g893" transform="translate(208.2217,405.3853)"><path id="path895" d="m 0,0 v 41.165 c 0,0.781 -0.63,1.42 -1.41,1.42 h -16.988 c -0.78,0 -1.477,-0.803 -1.477,-1.585 v -58.977 c 0,-1.732 1.08,-2.248 2.478,-2.248 h 15.306 c 1.679,0 2.091,0.825 2.091,2.276 z" style="fill:#0f0e0f;fill-opacity:1;fill-rule:nonzero;stroke:none"/></g><g id="g897" transform="translate(398.0322,447.8364)"><path id="path899" d="m 0,0 h -16.911 c -0.776,0 -1.407,-0.639 -1.407,-1.426 v -43.726 c 0,0 -4.297,-3.144 -10.395,-3.144 -6.098,0 -7.716,2.767 -7.716,8.738 v 38.132 c 0,0.787 -0.63,1.426 -1.406,1.426 h -17.164 c -0.774,0 -1.409,-0.639 -1.409,-1.426 v -41.019 c 0,-17.735 9.884,-22.074 23.481,-22.074 11.156,0 20.15,6.163 20.15,6.163 0,0 0.427,-3.248 0.622,-3.633 0.193,-0.384 0.698,-0.772 1.244,-0.772 l 10.919,0.048 c 0.774,0 1.409,0.64 1.409,1.424 L 1.411,-1.426 C 1.411,-0.639 0.779,0 0,0" style="fill:#0f0e0f;fill-opacity:1;fill-rule:nonzero;stroke:none"/></g><g id="g901" transform="translate(437.584,399.5947)"><path id="path903" d="m 0,0 c -5.866,0.179 -9.845,2.84 -9.845,2.84 v 28.241 c 0,0 3.925,2.406 8.741,2.836 6.09,0.545 11.958,-1.294 11.958,-15.822 C 10.854,2.776 8.206,-0.248 0,0 m 6.67,50.245 c -9.605,0 -16.138,-4.286 -16.138,-4.286 v 30.198 c 0,0.787 -0.63,1.423 -1.406,1.423 h -17.091 c -0.777,0 -1.408,-0.636 -1.408,-1.423 v -89.178 c 0,-0.787 0.631,-1.427 1.41,-1.427 h 11.858 c 0.534,0 0.938,0.276 1.237,0.758 0.295,0.479 0.72,4.111 0.72,4.111 0,0 6.988,-6.622 20.217,-6.622 15.532,0 24.439,7.878 24.439,35.366 0,27.488 -14.226,31.08 -23.838,31.08" style="fill:#0f0e0f;fill-opacity:1;fill-rule:nonzero;stroke:none"/></g><g id="g905" transform="translate(257.2017,447.9785)"><path id="path907" d="m 0,0 h -12.784 c 0,0 -0.019,16.885 -0.019,16.889 0,0.639 -0.329,0.959 -1.069,0.959 h -17.42 c -0.677,0 -1.041,-0.299 -1.041,-0.95 V -0.554 c 0,0 -8.73,-2.107 -9.32,-2.278 -0.588,-0.17 -1.021,-0.712 -1.021,-1.359 v -10.967 c 0,-0.788 0.63,-1.425 1.409,-1.425 h 8.932 v -26.384 c 0,-19.596 13.746,-21.521 23.021,-21.521 4.239,0 9.309,1.361 10.146,1.67 0.506,0.186 0.801,0.71 0.801,1.278 l 0.014,12.065 c 0,0.787 -0.665,1.424 -1.413,1.424 -0.745,0 -2.651,-0.303 -4.613,-0.303 -6.279,0 -8.407,2.919 -8.407,6.698 0,3.777 -10e-4,25.073 -10e-4,25.073 H 0 c 0.779,0 1.411,0.637 1.411,1.425 V -1.421 C 1.411,-0.634 0.779,0 0,0" style="fill:#0f0e0f;fill-opacity:1;fill-rule:nonzero;stroke:none"/></g></g></g><path style="fill:#1b1817;fill-opacity:1;fill-rule:evenodd;stroke:none;stroke-width:1.89537" id="path935" d="m 283.45876,752.364 c -62.38468,0 -112.97226,-51.91511 -112.97226,-115.96264 0,-51.23341 32.36999,-94.70117 77.25733,-110.03469 5.64599,-1.07346 7.7188,2.51556 7.7188,5.57845 0,2.7633 -0.10476,11.90005 -0.15339,21.58985 -31.429,-7.01483 -38.06089,13.68208 -38.06089,13.68208 -5.13902,13.40172 -12.54354,16.96771 -12.54354,16.96771 -10.24997,7.19724 0.77263,7.04939 0.77263,7.04939 11.34437,-0.81804 17.31775,-11.95189 17.31775,-11.95189 10.07599,-17.72623 26.42842,-12.60097 32.8751,-9.63796 1.01583,7.49299 3.94172,12.61057 7.17255,15.50637 -25.09269,2.93035 -51.47059,12.87556 -51.47059,57.30922 0,12.65856 4.41315,23.0051 11.63995,31.12602 -1.17297,2.92076 -5.03986,14.7152 1.09627,30.6882 0,0 9.4867,3.11471 31.07355,-11.88854 9.01152,2.56935 18.67593,3.85787 28.27674,3.90396 9.60081,-0.0461 19.27271,-1.33461 28.30106,-3.90396 21.56253,15.00325 31.03615,11.88854 31.03615,11.88854 6.14922,-15.973 2.28233,-27.76744 1.10935,-30.6882 7.24364,-8.12092 11.62501,-18.46746 11.62501,-31.12602 0,-44.5412 -26.42844,-54.34621 -51.58473,-57.21704 4.0521,-3.59863 7.66269,-10.65571 7.66269,-21.47464 0,-15.51596 -0.12908,-28.00363 -0.12908,-31.82309 0,-3.08783 2.03166,-6.70182 7.75809,-5.56501 44.8649,15.35082 77.19373,58.80318 77.19373,110.02125 0,64.04753 -50.5801,115.96264 -112.97227,115.96264"/></g></svg>