<svg xmlns="http://www.w3.org/2000/svg" xmlns:svg="http://www.w3.org/2000/svg" id="svg1931" width="617.025" height="663.088" x="0" y="0" version="1.1" viewBox="0 0 617.025 663.088" xml:space="preserve"><metadata id="metadata1937"/><style id="style1871" type="text/css">.st3{fill:#e24329}.st4{fill:#fca326}.st5{fill:#fc6d26}.st6{fill:#8c929d}.st14{display:none}.st15{opacity:.1;fill:#e828e3}.st15,.st16{display:inline}.st18{font-family:&apos;SourceSansPro-Semibold&apos;}.st19{font-size:24px}</style><g id="g1884" transform="translate(-123.98812,0.670203)"><path id="path14_22_" d="m 439.246,496.833 h -21.8 l 0.1,162.5 h 88.3 v -20.1 h -66.5 z" class="st6"/><g id="g24_22_" transform="translate(977.32744,143.2844)"><path id="path26_22_" d="m -387.454,487.533 c -5.5,5.7 -14.6,11.4 -27,11.4 -16.6,0 -23.3,-8.2 -23.3,-18.9 0,-16.1 11.2,-23.8 35,-23.8 4.5,0 11.7,0.5 15.4,1.2 v 30.1 z m -22.6,-98.5 c -17.6,0 -33.8,6.2 -46.4,16.7 l 7.7,13.4 c 8.9,-5.2 19.8,-10.4 35.5,-10.4 17.9,0 25.8,9.2 25.8,24.6 v 7.9 c -3.5,-0.7 -10.7,-1.2 -15.1,-1.2 -38.2,0 -57.6,13.4 -57.6,41.4 0,25.1 15.4,37.7 38.7,37.7 15.7,0 30.8,-7.2 36,-18.9 l 4,15.9 h 15.4 v -83.2 c -0.1,-26.3 -11.5,-43.9 -44,-43.9 z" class="st6"/></g><g id="g28_22_" transform="translate(1099.7669,143.12893)"><path id="path30_22_" d="m -418.154,499.833 c -8.2,0 -15.4,-1 -20.8,-3.5 v -67.3 -7.8 c 7.4,-6.2 16.6,-10.7 28.3,-10.7 21.1,0 29.2,14.9 29.2,39 0,34.2 -13.1,50.3 -36.7,50.3 m 9.2,-110.6 c -19.5,0 -30,13.3 -30,13.3 v -21 l -0.1,-27.8 h -9.8 -11.5 l 0.1,158.5 c 10.7,4.5 25.3,6.9 41.2,6.9 40.7,0 60.3,-26 60.3,-70.9 -0.1,-35.5 -18.2,-59 -50.2,-59" class="st6"/></g><g id="g32_22_" transform="translate(584.04212,143.6308)"><path id="path34_22_" d="m -382.154,370.833 c 19.3,0 31.8,6.4 39.9,12.9 l 9.4,-16.3 c -12.7,-11.2 -29.9,-17.2 -48.3,-17.2 -46.4,0 -78.9,28.3 -78.9,85.4 0,59.8 35.1,83.1 75.2,83.1 20.1,0 37.2,-4.7 48.4,-9.4 l -0.5,-63.9 v -7.5 -12.6 h -59.5 v 20.1 h 38 l 0.5,48.5 c -5,2.5 -13.6,4.5 -25.3,4.5 -32.2,0 -53.8,-20.3 -53.8,-63 -0.1,-43.5 22.2,-64.6 54.9,-64.6" class="st6"/></g><g id="g36_22_" transform="translate(793.56904,142.57746)"><path id="path38_22_" d="m -438.154,354.233 h -21.3 l 0.1,27.3 v 11.2 6.5 11.4 65 0.2 c 0,26.3 11.4,43.9 43.9,43.9 4.5,0 8.9,-0.4 13.1,-1.2 v -19.1 c -3.1,0.5 -6.4,0.7 -9.9,0.7 -17.9,0 -25.8,-9.2 -25.8,-24.6 v -65 h 35.7 v -17.8 h -35.7 z" class="st6"/></g><path id="path40_146_" d="m 279.946,659.333 h 21.3 v -124 h -21.3 z" class="st6"/><path id="path42_22_" d="m 279.946,518.233 h 21.3 v -21.3 h -21.3 z" class="st6"/></g><g id="g1895" transform="translate(-123.98812,-57.329797)"><g id="g3115" transform="matrix(1.0979449,0,0,1.1152027,-42.356841,-32.145962)"><path style="stroke-width:1.19503" id="path50_21_" d="m 432.44263,445.56285 v 0 L 508.05078,220.79418 H 356.9451 Z" class="st3"/><path style="stroke-width:1.19503" id="path66_24_" d="m 251.04215,220.79418 v 0 l -23.02439,68.28751 c -2.08351,6.2007 0.16653,13.04519 5.66584,16.91035 l 198.75903,139.56964 z" class="st4"/><path style="stroke-width:1.19503" id="path74_21_" d="M 251.04215,220.79418 H 356.94388 L 311.36675,85.426896 c -2.33271,-6.925552 -12.49864,-6.925552 -14.91522,0 z" class="st3"/><path style="stroke-width:1.19503" id="path82_24_" d="m 613.95251,220.79418 v 0 l 22.94173,68.28751 c 2.08351,6.2007 -0.16653,13.04519 -5.66584,16.91035 L 432.44263,445.56285 Z" class="st4"/><path style="stroke-width:1.19503" id="path86_21_" d="M 613.95251,220.79418 H 508.05078 L 553.54403,85.426896 c 2.33271,-6.925552 12.49865,-6.925552 14.91401,0 z" class="st3"/><polygon id="polygon1891" points="432.445 434.522 494.644 243.2 581.764 243.2" class="st5" transform="matrix(1.2155847,0,0,1.1748187,-93.230876,-64.921703)"/><polygon id="polygon1893" points="432.445 434.522 283.216 243.2 370.337 243.2" class="st5" transform="matrix(1.2155847,0,0,1.1748187,-93.230876,-64.921703)"/></g></g><g id="spacing_guides" class="st14" transform="translate(-123.98812,-57.329798)"><path id="path40_68_" d="m 0.5,0 v 124 h 864 V 0 Z" class="st15"/><path id="path40_67_" d="m 0.5,434.5 v 62 h 864 v -62 z" class="st15"/><path id="path40_64_" d="m 401.5,434.551 h 62 V 124.333 h -62 z" class="st15"/><g id="g1905" class="st16"><text id="text1903" class="st18 st19" transform="translate(396.7527,204.9994)">H: 2.5 x</text></g><g id="g1909" class="st16"><text id="text1907" class="st18 st19" transform="translate(408.2224,469.9979)">1/2 x</text></g><path id="path40_51_" d="m 0.5,659.46 v 124 h 864 v -124 z" class="st15"/><g id="g1914" class="st16"><text id="text1912" class="st18 st19" transform="translate(420.7878,726.4659)">1x</text></g><g id="g1918" class="st16"><text id="text1916" class="st18 st19" transform="translate(420.7878,65.498)">1x</text></g><path id="path40_9_" d="m -0.015,783 h 124 V 1 h -124 z" class="st15"/><g id="g1923" class="st16"><text id="text1921" class="st18 st19" transform="translate(51.2751,395.332)">1x</text></g><path id="path40_4_" d="m 741.027,783 h 124 V 1 h -124 z" class="st15"/><g id="g1928" class="st16"><text id="text1926" class="st18 st19" transform="translate(790.3169,395.332)">1x</text></g></g></svg>