<?xml version="1.0" encoding="UTF-8" standalone="no"?>
<svg
   xmlns:sketch="http://www.bohemiancoding.com/sketch/ns"
   xmlns:dc="http://purl.org/dc/elements/1.1/"
   xmlns:cc="http://creativecommons.org/ns#"
   xmlns:rdf="http://www.w3.org/1999/02/22-rdf-syntax-ns#"
   xmlns:svg="http://www.w3.org/2000/svg"
   xmlns="http://www.w3.org/2000/svg"
   xmlns:sodipodi="http://sodipodi.sourceforge.net/DTD/sodipodi-0.dtd"
   xmlns:inkscape="http://www.inkscape.org/namespaces/inkscape"
   version="1.1"
   x="0px"
   y="0px"
   viewBox="0 0 617.02478 663.08759"
   xml:space="preserve"
   id="svg1931"
   sodipodi:docname="gitlab.svg"
   width="617.02478"
   height="663.08759"
   inkscape:version="1.0 (4035a4f, 2020-05-01)"><metadata
   id="metadata1937"><rdf:RDF><cc:Work
       rdf:about=""><dc:format>image/svg+xml</dc:format><dc:type
         rdf:resource="http://purl.org/dc/dcmitype/StillImage" /><dc:title></dc:title></cc:Work></rdf:RDF></metadata><defs
   id="defs1935">
	

		
		
	</defs><sodipodi:namedview
   inkscape:document-rotation="0"
   pagecolor="#ffffff"
   bordercolor="#666666"
   borderopacity="1"
   objecttolerance="10"
   gridtolerance="10"
   guidetolerance="10"
   inkscape:pageopacity="0"
   inkscape:pageshadow="2"
   inkscape:window-width="1346"
   inkscape:window-height="994"
   id="namedview1933"
   showgrid="false"
   inkscape:zoom="0.72576531"
   inkscape:cx="349.84756"
   inkscape:cy="306.31924"
   inkscape:window-x="628"
   inkscape:window-y="7"
   inkscape:window-maximized="0"
   inkscape:current-layer="svg1931" />
<style
   type="text/css"
   id="style1871">
	.st0{fill:#FAFAFA;}
	.st1{fill:#F0F0F0;}
	.st2{fill:#FFFFFF;}
	.st3{fill:#E24329;}
	.st4{fill:#FCA326;}
	.st5{fill:#FC6D26;}
	.st6{fill:#8C929D;}
	.st7{fill:#2E2E2E;}
	.st8{fill:none;stroke:#FCA326;stroke-width:16;stroke-linecap:round;stroke-linejoin:round;stroke-miterlimit:10;}
	.st9{fill:none;stroke:#FC6D26;stroke-width:16;stroke-linecap:round;stroke-linejoin:round;stroke-miterlimit:10;}
	.st10{fill:none;stroke:#E24329;stroke-width:16;stroke-linecap:round;stroke-linejoin:round;stroke-miterlimit:10;}
	.st11{fill:none;stroke:#F0F0F0;stroke-miterlimit:10;}
	.st12{fill:#231F20;}
	.st13{fill:none;stroke:#231F20;stroke-width:16;stroke-linecap:round;stroke-linejoin:round;stroke-miterlimit:10;}
	.st14{display:none;}
	.st15{display:inline;opacity:0.1;fill:#E828E3;}
	.st16{display:inline;}
	.st17{opacity:0.1;fill:#E828E3;}
	.st18{font-family:'SourceSansPro-Semibold';}
	.st19{font-size:24px;}
	.st20{display:inline;fill:#DB3B21;}
	.st21{display:inline;fill:#FC6D26;}
	.st22{display:inline;fill:#2E2E2E;}
	.st23{display:inline;fill:#6E49CB;}
	.st24{display:inline;fill:#380D75;}
	.st25{display:inline;fill:#FCA121;}
	.st26{opacity:0.6;fill:none;stroke:#231F20;stroke-width:2;stroke-miterlimit:10;stroke-dasharray:12,6;}
	.st27{fill:none;stroke:#444444;stroke-width:1.5339;stroke-miterlimit:10;}
</style>
<g
   transform="translate(-123.98812,0.670203)"
   id="g1884">
			<path
   id="path14_22_"
   class="st6"
   d="m 439.246,496.833 h -21.8 l 0.1,162.5 h 88.3 v -20.1 h -66.5 z" />
			<g
   id="g24_22_"
   transform="translate(977.32744,143.2844)">
				<path
   id="path26_22_"
   class="st6"
   d="m -387.454,487.533 c -5.5,5.7 -14.6,11.4 -27,11.4 -16.6,0 -23.3,-8.2 -23.3,-18.9 0,-16.1 11.2,-23.8 35,-23.8 4.5,0 11.7,0.5 15.4,1.2 v 30.1 z m -22.6,-98.5 c -17.6,0 -33.8,6.2 -46.4,16.7 l 7.7,13.4 c 8.9,-5.2 19.8,-10.4 35.5,-10.4 17.9,0 25.8,9.2 25.8,24.6 v 7.9 c -3.5,-0.7 -10.7,-1.2 -15.1,-1.2 -38.2,0 -57.6,13.4 -57.6,41.4 0,25.1 15.4,37.7 38.7,37.7 15.7,0 30.8,-7.2 36,-18.9 l 4,15.9 h 15.4 v -83.2 c -0.1,-26.3 -11.5,-43.9 -44,-43.9 z" />
			</g>
			<g
   id="g28_22_"
   transform="translate(1099.7669,143.12893)">
				<path
   id="path30_22_"
   class="st6"
   d="m -418.154,499.833 c -8.2,0 -15.4,-1 -20.8,-3.5 v -67.3 -7.8 c 7.4,-6.2 16.6,-10.7 28.3,-10.7 21.1,0 29.2,14.9 29.2,39 0,34.2 -13.1,50.3 -36.7,50.3 m 9.2,-110.6 c -19.5,0 -30,13.3 -30,13.3 v -21 l -0.1,-27.8 h -9.8 -11.5 l 0.1,158.5 c 10.7,4.5 25.3,6.9 41.2,6.9 40.7,0 60.3,-26 60.3,-70.9 -0.1,-35.5 -18.2,-59 -50.2,-59" />
			</g>
			<g
   id="g32_22_"
   transform="translate(584.04212,143.6308)">
				<path
   id="path34_22_"
   class="st6"
   d="m -382.154,370.833 c 19.3,0 31.8,6.4 39.9,12.9 l 9.4,-16.3 c -12.7,-11.2 -29.9,-17.2 -48.3,-17.2 -46.4,0 -78.9,28.3 -78.9,85.4 0,59.8 35.1,83.1 75.2,83.1 20.1,0 37.2,-4.7 48.4,-9.4 l -0.5,-63.9 v -7.5 -12.6 h -59.5 v 20.1 h 38 l 0.5,48.5 c -5,2.5 -13.6,4.5 -25.3,4.5 -32.2,0 -53.8,-20.3 -53.8,-63 -0.1,-43.5 22.2,-64.6 54.9,-64.6" />
			</g>
			<g
   id="g36_22_"
   transform="translate(793.56904,142.57746)">
				<path
   id="path38_22_"
   class="st6"
   d="m -438.154,354.233 h -21.3 l 0.1,27.3 v 11.2 6.5 11.4 65 0.2 c 0,26.3 11.4,43.9 43.9,43.9 4.5,0 8.9,-0.4 13.1,-1.2 v -19.1 c -3.1,0.5 -6.4,0.7 -9.9,0.7 -17.9,0 -25.8,-9.2 -25.8,-24.6 v -65 h 35.7 v -17.8 h -35.7 z" />
			</g>
			<path
   id="path40_146_"
   class="st6"
   d="m 279.946,659.333 h 21.3 v -124 h -21.3 z" />
			<path
   id="path42_22_"
   class="st6"
   d="m 279.946,518.233 h 21.3 v -21.3 h -21.3 z" />
		</g><g
   transform="translate(-123.98812,-57.329797)"
   id="g1895">
			
			
			
			
			
			
			<g
   transform="matrix(1.0979449,0,0,1.1152027,-42.356841,-32.145962)"
   id="g3115"><path
     style="stroke-width:1.19503"
     d="m 432.44263,445.56285 v 0 L 508.05078,220.79418 H 356.9451 Z"
     class="st3"
     id="path50_21_" /><path
     style="stroke-width:1.19503"
     d="m 251.04215,220.79418 v 0 l -23.02439,68.28751 c -2.08351,6.2007 0.16653,13.04519 5.66584,16.91035 l 198.75903,139.56964 z"
     class="st4"
     id="path66_24_" /><path
     style="stroke-width:1.19503"
     d="M 251.04215,220.79418 H 356.94388 L 311.36675,85.426896 c -2.33271,-6.925552 -12.49864,-6.925552 -14.91522,0 z"
     class="st3"
     id="path74_21_" /><path
     style="stroke-width:1.19503"
     d="m 613.95251,220.79418 v 0 l 22.94173,68.28751 c 2.08351,6.2007 -0.16653,13.04519 -5.66584,16.91035 L 432.44263,445.56285 Z"
     class="st4"
     id="path82_24_" /><path
     style="stroke-width:1.19503"
     d="M 613.95251,220.79418 H 508.05078 L 553.54403,85.426896 c 2.33271,-6.925552 12.49865,-6.925552 14.91401,0 z"
     class="st3"
     id="path86_21_" /><polygon
     transform="matrix(1.2155847,0,0,1.1748187,-93.230876,-64.921703)"
     id="polygon1891"
     points="432.445,434.522 494.644,243.2 581.764,243.2 "
     class="st5" /><polygon
     transform="matrix(1.2155847,0,0,1.1748187,-93.230876,-64.921703)"
     id="polygon1893"
     points="432.445,434.522 283.216,243.2 370.337,243.2 "
     class="st5" /></g>
		</g>
<g
   id="spacing_guides"
   class="st14"
   transform="translate(-123.98812,-57.329798)">
	<path
   id="path40_68_"
   sketch:type="MSShapeGroup"
   class="st15"
   d="m 0.5,0 v 124 h 864 V 0 Z" />
	<path
   id="path40_67_"
   sketch:type="MSShapeGroup"
   class="st15"
   d="m 0.5,434.5 v 62 h 864 v -62 z" />
	<path
   id="path40_64_"
   sketch:type="MSShapeGroup"
   class="st15"
   d="m 401.5,434.551 h 62 V 124.333 h -62 z" />
	<g
   class="st16"
   id="g1905">
		<text
   transform="translate(396.7527,204.9994)"
   class="st18 st19"
   id="text1903">H: 2.5 x</text>
	</g>
	<g
   class="st16"
   id="g1909">
		<text
   transform="translate(408.2224,469.9979)"
   class="st18 st19"
   id="text1907">1/2 x</text>
	</g>
	<path
   id="path40_51_"
   sketch:type="MSShapeGroup"
   class="st15"
   d="m 0.5,659.46 v 124 h 864 v -124 z" />
	<g
   class="st16"
   id="g1914">
		<text
   transform="translate(420.7878,726.4659)"
   class="st18 st19"
   id="text1912">1x</text>
	</g>
	<g
   class="st16"
   id="g1918">
		<text
   transform="translate(420.7878,65.498)"
   class="st18 st19"
   id="text1916">1x</text>
	</g>
	<path
   id="path40_9_"
   sketch:type="MSShapeGroup"
   class="st15"
   d="m -0.015,783 h 124 V 1 h -124 z" />
	<g
   class="st16"
   id="g1923">
		<text
   transform="translate(51.2751,395.332)"
   class="st18 st19"
   id="text1921">1x</text>
	</g>
	<path
   id="path40_4_"
   sketch:type="MSShapeGroup"
   class="st15"
   d="m 741.027,783 h 124 V 1 h -124 z" />
	<g
   class="st16"
   id="g1928">
		<text
   transform="translate(790.3169,395.332)"
   class="st18 st19"
   id="text1926">1x</text>
	</g>
</g>
</svg>
