<svg xmlns="http://www.w3.org/2000/svg" xmlns:xlink="http://www.w3.org/1999/xlink" width="831" height="291" version="1.1" viewBox="0 0 831 291"><title>Website Logo</title><desc>Created with Sketch.</desc><g id="Website-Logo" fill="none" fill-rule="evenodd" stroke="none" stroke-width="1"><g id="Final-Icon" fill-rule="nonzero" transform="translate(45.000000, 30.000000)"><rect id="Background" width="164" height="231" x="30" y="0" fill="#98EE99" rx="45"/><path id="Top-Border" fill="#66BB6A" d="M30,0 L149,7.10542736e-15 C173.852814,2.54003954e-15 194,20.1471863 194,45 L30,45 L30,0 Z"/><path id="Bottom-Border" fill="#66BB6A" d="M30,186 L194,186 L194,186 C194,210.852814 173.852814,231 149,231 L30,231 L30,186 Z"/><path id="Side-Border" fill="#338A3E" d="M30,0 L30,231 L30,231 C13.4314575,231 2.02906125e-15,217.568542 0,201 L0,30 C-2.02906125e-15,13.4314575 13.4314575,3.04359188e-15 30,0 Z"/><path id="Git-Logo" fill="#6D4C41" d="M117.441394,168.906565 C114.652628,171.697812 110.125905,171.697812 107.333244,168.906565 L97.2697872,158.842104 L110.035539,146.075665 C113.003215,147.077655 116.404832,146.405852 118.769279,144.040878 C121.146028,141.66117 121.813077,138.23051 120.785894,135.252798 L133.089693,122.949297 C136.066379,123.97504 139.500762,123.312394 141.877628,120.931195 C145.20069,117.609052 145.20069,112.225937 141.877628,108.902701 C138.55408,105.578611 133.171048,105.578611 129.846034,108.902701 C127.347372,111.403344 126.72941,115.07467 127.994936,118.153342 L116.520411,129.628414 L116.519435,99.4324632 C117.329592,99.0314001 118.094191,98.4961216 118.769279,97.8239464 C122.091371,94.5021716 122.091371,89.1200293 118.769279,85.7930171 C115.446217,82.4713634 110.060748,82.4713634 106.740973,85.7930171 C103.4184,89.1200293 103.4184,94.5021716 106.740973,97.8239464 C107.562091,98.6436113 108.512181,99.2640233 109.525963,99.6798223 L109.525963,130.156019 C108.512181,130.570498 107.563548,131.186505 106.740973,132.012016 C104.22429,134.526794 103.618139,138.220524 104.908879,141.311016 L92.3249579,153.897562 L59.0941106,120.668121 C56.3019631,117.874563 56.3019631,113.347769 59.0941106,110.556037 L107.5588,62.0934316 C110.349028,59.3021895 114.874294,59.3021895 117.668415,62.0934316 L165.906591,110.331454 C168.697803,113.124157 168.697803,117.652291 165.906591,120.444023 L117.441394,168.906565 Z" transform="translate(112.500000, 115.500000) scale(-1, 1) rotate(-180.000000) translate(-112.500000, -115.500000)"/></g><text id="GitJournal" fill="#444" fill-opacity=".96" font-family="Lato-Regular, Lato" font-size="108" font-weight="normal"><tspan x="284" y="188">GitJournal</tspan></text></g></svg>